<svg width="65" height="64" viewBox="0 0 65 64" fill="none" xmlns="http://www.w3.org/2000/svg">
<path fill-rule="evenodd" clip-rule="evenodd" d="M32.5 56.503L34.4231 54.3361C36.6052 51.837 38.5678 49.466 40.3141 47.2108L41.7556 45.309C47.7747 37.1993 50.7857 30.7628 50.7857 26.0054C50.7857 15.8508 42.5998 7.61914 32.5 7.61914C22.4002 7.61914 14.2143 15.8508 14.2143 26.0054C14.2143 30.7628 17.2253 37.1993 23.2444 45.309L24.6859 47.2108C27.1772 50.4028 29.7836 53.5033 32.5 56.506V56.503Z" fill="white" stroke="#E21F25" stroke-linecap="round" stroke-linejoin="round"/>
<path d="M32.5 33.524C36.7079 33.524 40.1191 30.1128 40.1191 25.9049C40.1191 21.6971 36.7079 18.2859 32.5 18.2859C28.2921 18.2859 24.881 21.6971 24.881 25.9049C24.881 30.1128 28.2921 33.524 32.5 33.524Z" stroke="#E21F25" stroke-linecap="round" stroke-linejoin="round"/>
</svg>
