<svg width="51" height="52" fill="none" xmlns="http://www.w3.org/2000/svg"><path d="M47.793 34.373a82.638 82.638 0 0 1-8.4-1.48 4.147 4.147 0 0 0-4 .774 552.51 552.51 0 0 1-4.866 4.813A38.253 38.253 0 0 1 13.06 21c2.067-2.12 4-4.147 4.787-4.853a4.148 4.148 0 0 0 .773-4 82.442 82.442 0 0 1-1.48-8.414 2.665 2.665 0 0 0-3.067-2.36H2.713A2 2 0 0 0 .9 3.2C.167 13.453 5.887 24.427 7.047 26.533v.08l.16.307A47.253 47.253 0 0 0 24.54 44.253l.587.334C27.793 46 38.393 51.333 48.3 50.6a2 2 0 0 0 1.853-1.813V37.44a2.665 2.665 0 0 0-2.36-3.067Z" fill="#fff" stroke="#E21F25" stroke-linecap="round" stroke-linejoin="round"/></svg>