<svg width="65" height="64" viewBox="0 0 65 64" fill="none" xmlns="http://www.w3.org/2000/svg">
<path d="M54.7933 40.3734C51.9697 40.025 49.166 39.531 46.3933 38.8934C45.7164 38.6672 44.9926 38.6195 44.2918 38.755C43.5911 38.8905 42.9372 39.2045 42.3933 39.6668C41.6867 40.3868 39.6467 42.4001 37.5267 44.4801C29.931 40.7462 23.7881 34.5986 20.06 27.0001C22.1267 24.8801 24.06 22.8534 24.8467 22.1468C25.3089 21.6029 25.623 20.949 25.7585 20.2483C25.8939 19.5475 25.8462 18.8237 25.62 18.1468C24.9816 15.3698 24.4876 12.5616 24.14 9.73342C24.1028 9.37328 23.9926 9.02449 23.8161 8.70832C23.6397 8.39215 23.4008 8.11522 23.1138 7.89441C22.8269 7.6736 22.498 7.51352 22.1472 7.42395C21.7964 7.33438 21.431 7.31719 21.0733 7.37342H9.71334C9.24443 7.41575 8.80549 7.62216 8.47379 7.9563C8.14209 8.29043 7.93891 8.73088 7.90001 9.20009C7.16668 19.4534 12.8867 30.4268 14.0467 32.5334V32.6134L14.2067 32.9201C18.3591 40.122 24.3381 46.101 31.54 50.2534L32.1267 50.5868C34.7933 52.0001 45.3933 57.3334 55.3 56.6001C55.774 56.5672 56.2207 56.3667 56.5603 56.0344C56.8999 55.7022 57.1101 55.2599 57.1533 54.7868V43.4401C57.2096 43.0824 57.1924 42.717 57.1028 42.3662C57.0132 42.0154 56.8532 41.6865 56.6324 41.3996C56.4115 41.1127 56.1346 40.8737 55.8184 40.6973C55.5023 40.5209 55.1535 40.4107 54.7933 40.3734Z" fill="white" stroke="#E21F25" stroke-linecap="round" stroke-linejoin="round"/>
</svg>
