<svg width="24" height="24" fill="none" xmlns="http://www.w3.org/2000/svg"><path d="M21.556 7.197a2.504 2.504 0 0 0-1.767-1.766c-1.157-.447-12.366-.666-15.618.012A2.503 2.503 0 0 0 2.405 7.21c-.523 2.292-.562 7.246.013 9.588a2.503 2.503 0 0 0 1.766 1.767c2.292.527 13.186.601 15.618 0a2.503 2.503 0 0 0 1.767-1.767c.557-2.496.596-7.143-.013-9.601v0Z" stroke="#fff" stroke-linecap="round" stroke-linejoin="round"/><path d="M15.284 11.998 10.06 9.002v5.991l5.224-2.995Z" stroke="#fff" stroke-linecap="round" stroke-linejoin="round"/></svg>